<?xml version="1.0" encoding="UTF-8" standalone="no"?>
<!-- Created with Inkscape (http://www.inkscape.org/) -->

<svg
   width="465.703mm"
   height="114.704mm"
   viewBox="0 0 465.70302 114.704"
   version="1.1"
   id="svg5"
   xml:space="preserve"
   inkscape:version="1.2.2 (b0a8486541, 2022-12-01)"
   sodipodi:docname="loop.svg"
   inkscape:export-filename="loop.png"
   inkscape:export-xdpi="90"
   inkscape:export-ydpi="90"
   xmlns:inkscape="http://www.inkscape.org/namespaces/inkscape"
   xmlns:sodipodi="http://sodipodi.sourceforge.net/DTD/sodipodi-0.dtd"
   xmlns:xlink="http://www.w3.org/1999/xlink"
   xmlns="http://www.w3.org/2000/svg"
   xmlns:svg="http://www.w3.org/2000/svg"><sodipodi:namedview
     id="namedview7"
     pagecolor="#ffffff"
     bordercolor="#000000"
     borderopacity="0.25"
     inkscape:showpageshadow="2"
     inkscape:pageopacity="0.0"
     inkscape:pagecheckerboard="0"
     inkscape:deskcolor="#d1d1d1"
     inkscape:document-units="mm"
     showgrid="false"
     inkscape:zoom="0.47006996"
     inkscape:cx="559.49119"
     inkscape:cy="277.61825"
     inkscape:window-width="1920"
     inkscape:window-height="1026"
     inkscape:window-x="0"
     inkscape:window-y="0"
     inkscape:window-maximized="1"
     inkscape:current-layer="layer1"
     showguides="true" /><defs
     id="defs2"><linearGradient
   inkscape:collect="always"
   id="linearGradient16877"><stop
     style="stop-color:#000000;stop-opacity:1"
     offset="0"
     id="stop16873" /><stop
     style="stop-color:#ffffff;stop-opacity:0;"
     offset="1"
     id="stop16875" /></linearGradient><inkscape:path-effect
   effect="spiro"
   id="path-effect15411"
   is_visible="true"
   lpeversion="1" />
	
	
	














<linearGradient
   inkscape:collect="always"
   xlink:href="#linearGradient16877"
   id="linearGradient16881"
   x1="191.88298"
   y1="180.65302"
   x2="191.35054"
   y2="168.52719"
   gradientUnits="userSpaceOnUse"
   gradientTransform="translate(4.4223814,-3.0708302)" /></defs><g
     inkscape:label="Layer 1"
     inkscape:groupmode="layer"
     id="layer1"
     transform="translate(-16.960262,-101.759)"><path
       style="fill:#cccccc;stroke:#000000;stroke-width:0.4;stroke-linecap:round;stroke-miterlimit:20;stroke-dasharray:1.6, 1.6;stroke-dashoffset:0;paint-order:stroke markers fill"
       d="m 178.63443,175.2923 7.95649,22.93461"
       id="path15344"
       sodipodi:nodetypes="cc" /><path
       style="fill:#cccccc;stroke:#000000;stroke-width:0.4;stroke-linecap:round;stroke-miterlimit:20;stroke-dasharray:1.6, 1.6;stroke-dashoffset:0;paint-order:stroke markers fill"
       d="m 212.81401,174.99521 -7.83877,23.24035"
       id="path15344-0"
       sodipodi:nodetypes="cc" /><path
       style="fill:#ffffff;fill-opacity:1;stroke:none;stroke-width:0.4;stroke-linecap:round;stroke-miterlimit:20;stroke-dasharray:none;stroke-dashoffset:0;paint-order:stroke markers fill"
       d="m 131.41604,145.68246 -25.59228,36.06481 109.94419,0.27194 0.28751,-36.65314"
       id="path16334"
       sodipodi:nodetypes="cccc" /><path
       style="fill:none;fill-opacity:1;stroke:#000000;stroke-width:0.4;stroke-linecap:round;stroke-miterlimit:20;stroke-dasharray:none;stroke-dashoffset:0;paint-order:stroke markers fill"
       d="m 131.6978,153.86765 -25.87404,27.87962 109.94419,0.27194"
       id="path16334-6"
       sodipodi:nodetypes="ccc" /><ellipse
       style="fill:url(#linearGradient16881);fill-opacity:1;stroke:#000000;stroke-width:0.5;stroke-linecap:round;stroke-miterlimit:20;stroke-dasharray:none;paint-order:stroke markers fill"
       id="path13005"
       cx="195.46672"
       cy="170.73523"
       rx="18.112484"
       ry="5.5748067" /><text
       xml:space="preserve"
       style="font-size:14.1111px;line-height:1.2;font-family:monospace;-inkscape-font-specification:monospace;fill:#000080;stroke:none;stroke-width:1.5;stroke-linecap:round;stroke-miterlimit:20;stroke-dasharray:none;paint-order:stroke markers fill"
       x="323.84393"
       y="150.51016"
       id="text3100-1"><tspan
         sodipodi:role="line"
         style="font-style:normal;font-variant:normal;font-weight:bold;font-stretch:normal;font-size:14.1111px;font-family:monospace;-inkscape-font-specification:'monospace Bold';text-align:center;text-anchor:middle;fill:#000000;stroke:none;stroke-width:1.5"
         x="323.84393"
         y="150.51016"
         id="tspan9266">solange</tspan><tspan
         sodipodi:role="line"
         style="font-style:normal;font-variant:normal;font-weight:bold;font-stretch:normal;font-size:14.1111px;font-family:monospace;-inkscape-font-specification:'monospace Bold';text-align:center;text-anchor:middle;fill:#000000;stroke:none;stroke-width:1.5"
         x="323.84393"
         y="167.44348"
         id="tspan768">kein H<tspan
   style="font-size:65%;text-align:center;baseline-shift:sub;text-anchor:middle"
   id="tspan477">2</tspan>O gefunden</tspan><tspan
         sodipodi:role="line"
         style="font-style:normal;font-variant:normal;font-weight:bold;font-stretch:normal;font-size:14.1111px;font-family:monospace;-inkscape-font-specification:'monospace Bold';text-align:center;text-anchor:middle;fill:#000000;stroke:none;stroke-width:1.5"
         x="323.84393"
         y="184.3768"
         id="tspan442">graben()</tspan><tspan
         sodipodi:role="line"
         style="font-style:normal;font-variant:normal;font-weight:bold;font-stretch:normal;font-size:14.1111px;font-family:monospace;-inkscape-font-specification:'monospace Bold';fill:#000000;stroke:none;stroke-width:1.5"
         x="323.84393"
         y="201.31012"
         id="tspan12931" /></text><g
       style="fill:#000000"
       id="g12554"
       transform="matrix(0.23211222,0,0,0.23211222,74.132158,92.261398)"><path
         d="m 404.03674,138.21896 c 11.331,0 20.516,9.185 20.516,20.516 0,11.331 -9.185,20.516 -20.516,20.516 -11.331,0 -20.517,-9.185 -20.517,-20.516 0,-11.331 9.186,-20.516 20.517,-20.516 z m -75.258,124.326 -0.189,-0.189 v 0 c -0.851,-0.567 -1.607,-1.04 -2.269,-1.796 l 2.269,26 -28.553,40.465 c -4.065,5.862 -2.647,13.804 3.025,17.869 5.862,4.065 13.804,2.647 17.869,-3.025 l 30.822,-44.436 c 1.607,-2.269 2.647,-5.295 2.269,-8.32 l -1.04,-12.574 z m 150.79898,51.63621 c -22.32349,-14.12749 -29.61923,-18.01463 -68.73298,-41.89821 1.04,-1.985 1.229,-4.255 0.851,-6.713 l -21.936,-81.308 c -1.796,-7.942 -8.887,-13.993 -17.207,-13.993 h -40.938 c -3.025,0 -6.051,1.607 -7.753,4.255 l -20.421,35.454 c -2.647,4.255 -1.04,9.738 3.215,12.196 l 22.88,13.142 -3.025,5.105 c -3.687,6.051 -1.607,13.804 4.633,17.207 l 51.336,29.593 v 46.894 c 0,7.091 5.673,12.764 12.764,12.764 7.091,0 12.764,-5.673 12.764,-12.764 v -53.512 c 47.21047,26.58601 47.16216,25.28819 71.56998,33.57821 z m -145.69398,-86.33421 -15.033,-8.698 v 0 l 17.869,-30.822 h 20.044 z m 32.997,19.098 14.182,-24.771 10.589,38.952 z"
         id="path12546"
         sodipodi:nodetypes="sssssccscccccccccccccsscccccccssscccccccccccc" /></g><g
       id="g15225"
       transform="matrix(1.401776,0,0,1.401776,-58.443498,-95.992762)"
       style="stroke:#ffffff;stroke-width:0.35669;stroke-dasharray:none"><path
         d="m 173.29085,188.35872 c 0.41391,0.22984 0.89255,0.28474 1.34775,0.15458 0.45516,-0.13014 0.83248,-0.42978 1.06222,-0.84367 4e-5,-6e-5 4e-5,-6e-5 4e-5,-6e-5 0.22985,-0.41387 0.28474,-0.8925 0.1546,-1.34766 -0.13016,-0.4552 -0.42978,-0.83247 -0.8437,-1.06231 l -1.28027,-0.71092 1.42189,-2.56056 3.94711,2.19179 c 1.33753,0.74267 2.12746,2.15399 2.06154,3.68321 l -0.11992,2.77235 -2.28994,1.56744 c -1.26332,0.86452 -2.87882,0.94 -4.21627,0.19725 l -3.9471,-2.19178 1.42184,-2.56054 z"
         id="XMLID_516_"
         style="fill:#000000;stroke:#ffffff;stroke-width:0.35669;stroke-dasharray:none" /><path
         d="m 174.54708,186.0917 c 0.19077,0.10593 0.3298,0.28296 0.38982,0.49286 0.06,0.20981 0.0346,0.43045 -0.0712,0.62124 l -5e-5,1e-5 c -0.10594,0.19078 -0.27983,0.32892 -0.48968,0.38893 -0.20986,0.06 -0.43049,0.0347 -0.62131,-0.0713 l -7.88327,-4.78202 0.75124,-0.62157 z"
         id="XMLID_607_"
         style="fill:#000000;stroke:none;stroke-width:0.35669;stroke-dasharray:none"
         sodipodi:nodetypes="csccscccc" /></g><g
       id="Layer_1"
       transform="matrix(-0.07906136,0,0,0.07906136,167.24679,175.8138)"
       style="fill:#000000" /><path
       style="fill:#009eff;fill-opacity:1;stroke:none;stroke-width:0.796843;stroke-linecap:round;stroke-miterlimit:20;stroke-dasharray:0.796843, 1.59369;stroke-dashoffset:0;paint-order:stroke markers fill"
       d="m 202.49376,198.3302 c -0.38631,-0.0606 -0.78279,-0.0163 -1.16346,0.0731 -0.38066,0.0895 -0.74915,0.22332 -1.12088,0.34469 -0.37173,0.12136 -0.75017,0.23097 -1.1393,0.26948 -0.38914,0.0385 -0.79227,0.003 -1.14932,-0.15661 -0.46518,-0.20773 -0.81686,-0.60586 -1.25254,-0.86992 -0.46906,-0.28429 -1.02147,-0.40385 -1.56852,-0.44354 -0.54705,-0.0397 -1.0964,-0.004 -1.64488,-0.002 -0.72445,0.003 -1.44932,-0.0509 -2.1729,-0.0151 -0.72357,0.0358 -1.45698,0.16704 -2.09194,0.51585 -0.53866,0.29591 -1.00102,0.75969 -1.2108,1.33737 -0.10489,0.28884 -0.14491,0.6025 -0.1039,0.90704 0.041,0.30455 0.16427,0.59922 0.36163,0.83476 0.22083,0.26355 0.52663,0.44618 0.84996,0.56314 0.32333,0.11697 0.66554,0.17204 1.00688,0.2134 0.34134,0.0414 0.68481,0.0697 1.02222,0.13594 0.3374,0.0662 0.67137,0.17207 0.96145,0.35667 0.37334,0.23759 0.65446,0.59164 0.93717,0.93209 0.28271,0.34046 0.5847,0.68217 0.98022,0.88067 0.37188,0.18664 0.8037,0.23197 1.21691,0.18309 0.41321,-0.0489 0.81088,-0.18754 1.1925,-0.35336 0.76325,-0.33165 1.4976,-0.78136 2.32358,-0.88274 0.51146,-0.0628 1.02881,0.0128 1.53776,0.0934 0.50896,0.0806 1.02333,0.16665 1.53691,0.12458 0.61847,-0.0507 1.22256,-0.2936 1.692,-0.69942 0.46944,-0.40583 0.79925,-0.97458 0.90028,-1.58683 0.10103,-0.61226 -0.0314,-1.26329 -0.37883,-1.77747 -0.34738,-0.51419 -0.90916,-0.88266 -1.5222,-0.97885 z"
       id="path15409"
       inkscape:path-effect="#path-effect15411"
       inkscape:original-d="m 202.49376,198.3302 c 0.23014,-1.68111 -3.04835,0.35405 -4.57296,0.53071 -1.52458,0.17664 -0.83476,-0.57971 -1.25254,-0.86992 -0.4178,-0.29026 -2.142,-0.29646 -3.2134,-0.44506 -1.0714,-0.14863 -2.84294,0.33407 -4.26484,0.50074 -1.42189,0.1666 -0.6351,2.05303 -0.95307,3.07917 -0.31796,1.02614 2.56061,0.84635 3.84051,1.26915 1.27988,0.4228 1.27854,1.20876 1.91739,1.81276 0.63888,0.60399 3.1556,-0.70177 4.73299,-1.05301 1.57739,-0.35126 2.05006,0.14564 3.07467,0.21803 1.02463,0.0725 0.46111,-3.36146 0.69125,-5.04257 z" /><g
       style="fill:#000000"
       id="g766"
       transform="matrix(0,-2.3006284,-2.3006284,0,403.40343,167.37672)"><path
         id="path757"
         d="m -14.135309,-2.3914543 c -1.097363,0.08611 -1.761081,1.244558 -1.576171,2.27148503 0.01582,7.45573897 -0.03159,28.71563127 0.02361,36.16914527 0.132076,1.058017 1.262817,1.662744 2.257641,1.488854 0.755257,-0.07493 1.583503,0.150262 2.294921,-0.111328 0.344972,-0.278213 0.644162,-0.759006 0.208607,-1.110549 -0.517419,-0.677121 -1.50059,-0.125705 -2.204504,-0.395654 -0.908993,-0.223765 -1.149951,-1.261791 -1.031446,-2.074657 0.01711,-6.561789 -0.0341,-26.9277183 0.02539,-33.48729627 0.142538,-0.934887 1.173265,-1.318583 2.014063,-1.176358 10.6967188,0.0039 21.396401,-0.04902 32.091272,-0.0096 0.957125,0.108878 1.372004,1.164126 1.220837,2.01838797 -0.01533,6.591791 0.03058,26.9875193 -0.02281,33.5772213 -0.111342,0.957013 -1.164495,1.368164 -2.0186,1.217106 h -2.960547 c 0.972216,-0.921077 2.031578,-1.764544 2.949219,-2.734375 0.260822,-0.555131 -0.617561,-1.261311 -1.042634,-0.663081 -1.430508,1.325718 -2.904198,2.608997 -4.310882,3.958003 -0.310268,0.655068 0.617617,0.977903 0.935157,1.403773 1.201916,1.051707 2.343086,2.18882 3.582421,3.188024 0.614637,0.228558 1.152505,-0.773347 0.550535,-1.11948 -0.921672,-0.826844 -1.84486,-1.652 -2.765378,-2.480129 1.771367,-0.03966 3.557203,0.07995 5.319731,-0.05917 1.024179,-0.228484 1.482545,-1.361516 1.322847,-2.322085 C 22.71138,27.730543 22.7611,6.5000227 22.70319,-0.92391027 22.562533,-1.9720303 21.446096,-2.5743333 20.456488,-2.4012163 c -11.530513,0.0065 -23.0616953,-0.01303 -34.591797,0.0098 z"
         sodipodi:nodetypes="cccccccccccccccccccccccccccc" /></g></g></svg>
